<svg width="64" height="64" viewBox="0 0 64 64" fill="none" xmlns="http://www.w3.org/2000/svg" xmlns:xlink="http://www.w3.org/1999/xlink">
<path d="M63.386,32C63.386,49.673 49.059,64 31.386,64C13.713,64 -0.614,49.673 -0.614,32C-0.614,14.327 13.713,0 31.386,0C49.059,0 63.386,14.327 63.386,32Z" transform="rotate(0 31.386 32)" fill="#000000" fill-opacity="0.8"/>
<path d="M56.002,32C56.002,45.595 44.981,56.616 31.386,56.616C17.792,56.616 6.771,45.595 6.771,32C6.771,18.405 17.792,7.385 31.386,7.385C44.981,7.385 56.002,18.405 56.002,32Z" transform="rotate(0 31.386 32)" fill="#DF1AFF"/>
</svg>
