<svg width="64" height="64" viewBox="0 0 64 64" fill="none" xmlns="http://www.w3.org/2000/svg" xmlns:xlink="http://www.w3.org/1999/xlink">
<path d="M64,32C64,49.673 49.673,64 32,64C14.327,64 0,49.673 0,32C0,14.327 14.327,0 32,0C49.673,0 64,14.327 64,32Z" transform="rotate(0 32 32)" fill="#000000" fill-opacity="0.8"/>
<path d="M56.615,32C56.615,45.595 45.595,56.616 32,56.616C18.405,56.616 7.385,45.595 7.385,32C7.385,18.405 18.405,7.385 32,7.385C45.595,7.385 56.615,18.405 56.615,32Z" transform="rotate(0 32 32)" fill="#EF613E"/>
</svg>
