<svg width="44" height="50" viewBox="0 0 44 50" fill="none" xmlns="http://www.w3.org/2000/svg" xmlns:xlink="http://www.w3.org/1999/xlink">
<path d="M39.672,47.813L41.085,49.229L43.916,46.403L42.503,44.988L39.672,47.813ZM31.263,33.726L29.85,32.31L27.019,35.136L28.432,36.552L31.263,33.726ZM42.503,44.988L31.263,33.726L28.432,36.552L39.672,47.813L42.503,44.988Z" fill="#000000" fill-opacity="0.8"/>
<path d="M35.808,19.939C35.808,28.746 28.684,35.878 19.904,35.878L19.904,39.878C30.9,39.878 39.808,30.948 39.808,19.939L35.808,19.939ZM19.904,35.878C11.124,35.878 4,28.746 4,19.939L0,19.939C0,30.948 8.908,39.878 19.904,39.878L19.904,35.878ZM4,19.939C4,11.132 11.124,4 19.904,4L19.904,0C8.908,0 0,8.931 0,19.939L4,19.939ZM19.904,4C28.684,4 35.808,11.132 35.808,19.939L39.808,19.939C39.808,8.931 30.9,0 19.904,0L19.904,4Z" fill="#000000" fill-opacity="0.8"/>
</svg>
