<svg width="348" height="260" viewBox="0 0 348 260" fill="none" xmlns="http://www.w3.org/2000/svg" xmlns:xlink="http://www.w3.org/1999/xlink">
<path d="M112.202,0.733C109.674,2.969 109.093,7.798 110.901,11.544C112.088,14.003 115.121,16.976 118.367,18.861L120.942,20.357L116.428,22.719C106.96,27.673 102.412,31.874 98.721,39.075C95.986,44.413 94.889,49.874 95.169,56.758C95.612,67.667 99.37,76.03 107.954,85.212C110.974,88.442 111.155,88.706 110.773,89.315C110.548,89.674 109.983,90.582 109.517,91.334C104.22,99.883 108.414,111.263 118.768,116.438C126.892,120.498 138.762,121.152 148.327,118.067C153.811,116.298 158.618,113.341 162.218,109.522C163.999,107.632 167.419,102.685 167.118,102.435C167.069,102.393 166.73,102.204 166.366,102.013C165.761,101.696 165.61,101.81 164.601,103.343C162.136,107.085 157.919,110.017 152.389,111.833C141.714,115.34 128.408,115.759 120.718,112.831C117.405,111.57 115.709,110.565 113.728,108.692C111.214,106.314 109.969,104.175 109.366,101.195C108.962,99.195 108.942,98.489 109.247,96.823C109.613,94.821 110.811,92.193 112.06,90.653L112.735,89.819L114.998,91.206C125.123,97.419 136.585,100.086 146.085,98.442C151.233,97.55 156.283,95.498 161.146,92.321C175.299,83.075 183.466,67.106 183.466,48.68C183.466,34.932 179.085,23.37 170.658,14.877C162.897,7.055 153.09,3.085 141.541,3.088C135.996,3.09 131.71,3.748 123.754,5.818C115.859,7.871 113.898,7.697 112.955,4.86C112.511,3.524 112.648,2.91 113.654,1.704C114.361,0.858 114.365,0.821 113.815,0.32C113.28,-0.169 113.196,-0.147 112.202,0.733ZM4,6.625C4,7.329 4.121,7.371 7.146,7.714C12.934,8.37 15.475,9.419 16.805,11.7C17.417,12.751 17.423,13.099 17.516,50.451C17.584,77.899 17.516,88.581 17.265,89.754C16.573,92.983 13.954,94.392 7.393,95.062L4,95.408L4,96.259L4,97.11L27.768,97.11C41.632,97.11 53.227,96.976 55.593,96.79C67.399,95.859 75.898,92.462 81.183,86.561C83.204,84.304 85.166,80.674 85.912,77.808C86.645,74.994 86.795,70.034 86.228,67.321C85.626,64.441 83.774,60.654 81.942,58.56C77.41,53.378 68.989,50.015 58.519,49.204C57.067,49.092 55.879,48.9 55.879,48.777C55.879,48.654 56.728,48.458 57.764,48.34C62.607,47.789 68.426,46.127 72.151,44.23C79.594,40.439 83.75,33.748 83.204,26.438C82.401,15.697 75.415,9.587 60.705,6.76C57.327,6.111 56.544,6.091 30.618,5.994L4,5.893L4,6.625ZM185.879,6.646C185.879,7.317 186.028,7.385 187.915,7.574C194.668,8.25 197.298,9.287 198.63,11.798L199.302,13.064L199.302,51.515C199.302,87.638 199.269,90.026 198.771,90.945C197.459,93.364 194.825,94.507 189.273,95.067L185.879,95.408L185.879,96.259L185.879,97.11L208.954,97.11L232.028,97.11L232.028,96.35C232.028,95.807 231.864,95.59 231.456,95.59C229.55,95.59 224.492,94.869 222.898,94.37C220.888,93.741 219.686,92.818 218.834,91.249C218.344,90.345 218.304,88.83 218.304,71.273L218.304,52.275L222.92,52.348C230.276,52.465 233.392,53.502 236.86,56.987C239.172,59.311 240.856,62.361 242.414,67.051C243.35,69.871 243.546,70.219 244.23,70.305L244.998,70.401L244.998,51.363L244.998,32.325L244.206,32.422C243.5,32.507 243.324,32.799 242.566,35.148C239.872,43.502 235.74,47.912 229.356,49.249C228.086,49.515 225.248,49.741 222.72,49.778L218.304,49.844L218.304,29.022L218.304,8.201L227.052,8.218C235.02,8.235 236.026,8.295 238.362,8.899C242.652,10.008 245.626,11.719 248.772,14.886C252.718,18.858 255.906,24.011 259.992,33.025C262.014,37.489 262.044,37.533 263.018,37.533L264,37.533L263.992,35.633C263.986,34.197 263.154,6.387 263.104,5.997C263.1,5.955 245.722,5.921 224.488,5.921L185.879,5.921L185.879,6.646ZM51.807,8.788C57.647,10.095 61.481,13.779 62.978,19.521C63.748,22.476 64.112,28.688 63.726,32.3C63.091,38.247 61.34,42.12 58.214,44.493C54.778,47.102 51.36,47.842 42.683,47.857L36.575,47.868L36.575,27.916L36.575,7.964L43.136,8.14C47.35,8.252 50.451,8.484 51.807,8.788ZM125.555,21.745C127.261,22.206 129.816,22.462 135.961,22.786C140.44,23.023 145.101,23.429 146.32,23.69C158.489,26.287 168.019,37.404 170.694,52.123C171.423,56.135 171.414,64.541 170.676,68.689C168.503,80.9 162.237,90.094 153.153,94.403C149.129,96.311 146.292,96.902 142.013,96.723C137.779,96.547 135.674,96.039 132.341,94.39C129.16,92.817 126.378,90.452 124.063,87.356C122.193,84.855 122.183,84.832 122.886,84.528C123.275,84.36 125.223,84.215 127.213,84.207C130.561,84.193 130.968,84.255 132.63,85.039C134.74,86.035 136.233,87.128 136.914,88.174C137.372,88.88 137.364,88.966 136.779,89.598C136.173,90.253 136.172,90.289 136.709,90.953L137.261,91.636L139.994,88.726C147.433,80.804 152.455,73.005 154.264,66.561C155.128,63.483 155.182,58.734 154.386,55.771C153.541,52.628 151.445,48.935 148.349,45.132C144.476,40.375 142.543,37.562 141.605,35.318C140.936,33.719 140.817,32.987 140.825,30.542C140.831,28.62 141,27.218 141.329,26.351L141.824,25.047L140.874,25.591C139.373,26.45 135.867,29.896 134.431,31.924C132.609,34.497 130.805,38.424 130.042,41.477C129.157,45.018 129.348,49.923 130.512,53.571C132.188,58.82 134.434,62.982 137.897,67.255C142.185,72.547 142.686,73.31 143.06,75.128C143.482,77.177 143.173,79.099 142.012,81.642L141.233,83.348L138.144,82.25C135.144,81.184 134.935,81.153 130.833,81.171C126.652,81.189 126.343,81.239 121.45,82.684C120.877,82.853 120.662,82.499 119.273,79.094C114.917,68.417 113.937,62.843 114.17,50.076C114.403,37.405 115.397,33.502 120.677,24.543C121.784,22.665 122.825,21.129 122.991,21.131C123.157,21.132 124.31,21.408 125.555,21.745ZM53.617,51.037C60.517,53.021 64.632,57.458 66.323,64.738C67.166,68.364 67.102,77.91 66.209,81.804C64.682,88.465 61.335,92.11 55.139,93.861C53.334,94.371 51.775,94.483 44.795,94.602L36.575,94.742L36.575,72.494L36.575,50.246L44.191,50.381C50.165,50.487 52.198,50.628 53.617,51.037Z" clip-rule="evenodd" fill-rule="evenodd" fill="#FFFFFF" fill-opacity="0.9"/>
<circle cx="42" cy="218" r="42" stroke="#FFFFFF" stroke-width="2" stroke-miterlimit="3.999327"/>
<circle cx="306" cy="218" r="42" stroke="#FFFFFF" stroke-width="2" stroke-miterlimit="3.999327"/>
<path d="M292.576,200C289.809,200 288,201.82 288,204.213C288,206.553 289.755,208.426 292.47,208.426L292.523,208.426C295.344,208.426 297.099,206.553 297.099,204.213C297.047,201.82 295.344,200 292.576,200L292.576,200Z" fill="#FFFFFF"/>
<rect  x="288.477" y="211.763" width="8.089" height="24.386" fill="#FFFFFF"/>
<path d="M316.421,211.188C312.057,211.188 309.131,215.297 309.131,215.297L309.131,211.76L301.041,211.76L301.041,236.147L309.13,236.147L309.13,222.528C309.13,221.799 309.183,221.071 309.397,220.55C309.981,219.094 311.312,217.586 313.547,217.586C316.474,217.586 317.645,219.822 317.645,223.101L317.645,236.147L325.733,236.147L325.733,222.164C325.733,214.674 321.742,211.188 316.421,211.188Z" fill="#FFFFFF"/>
<path d="M34.264,233.758C48.98,233.758 57.028,221.541 57.028,210.947C57.028,210.6 57.021,210.254 57.005,209.911C58.571,208.775 59.922,207.369 60.996,205.759C59.563,206.398 58.02,206.827 56.402,207.021C58.053,206.029 59.322,204.458 59.92,202.587C58.349,203.521 56.631,204.179 54.839,204.533C53.379,202.974 51.301,202 48.999,202C44.581,202 40.998,205.59 40.998,210.016C40.998,210.645 41.068,211.257 41.205,211.844C34.556,211.509 28.659,208.319 24.714,203.468C24.027,204.652 23.63,206.029 23.63,207.497C23.63,210.279 25.043,212.735 27.191,214.171C25.878,214.13 24.645,213.769 23.567,213.168C23.566,213.202 23.566,213.235 23.566,213.271C23.566,217.153 26.324,220.395 29.985,221.13C29.298,221.317 28.588,221.412 27.875,221.412C27.361,221.412 26.859,221.361 26.372,221.267C27.39,224.453 30.344,226.771 33.846,226.836C31.107,228.986 27.658,230.267 23.909,230.267C23.264,230.267 22.626,230.23 22,230.156C25.541,232.431 29.746,233.758 34.264,233.758Z" fill="#FFFFFF"/>
<circle cx="174" cy="218" r="42" fill="#FFFFFF" fill-opacity="0.9"/>
<path d="M189.591,210.236C189.511,208.422 189.217,207.176 188.796,206.096C188.362,204.949 187.694,203.923 186.819,203.069C185.964,202.203 184.929,201.529 183.793,201.103C182.705,200.683 181.462,200.389 179.645,200.309C177.815,200.223 177.234,200.203 172.592,200.203C167.949,200.203 167.368,200.223 165.545,200.303C163.728,200.383 162.479,200.676 161.397,201.096C160.248,201.529 159.219,202.196 158.364,203.069C157.496,203.923 156.821,204.956 156.394,206.089C155.973,207.176 155.679,208.416 155.599,210.229C155.512,212.056 155.492,212.636 155.492,217.269C155.492,221.902 155.512,222.482 155.592,224.302C155.672,226.116 155.966,227.362 156.387,228.443C156.821,229.589 157.496,230.616 158.364,231.469C159.219,232.336 160.254,233.009 161.39,233.436C162.479,233.856 163.721,234.149 165.538,234.229C167.361,234.309 167.943,234.329 172.585,234.329C177.227,234.329 177.808,234.309 179.632,234.229C181.449,234.149 182.698,233.856 183.78,233.436C184.916,232.997 185.948,232.327 186.81,231.467C187.671,230.607 188.344,229.577 188.783,228.443C189.204,227.356 189.498,226.116 189.578,224.302C189.658,222.482 189.678,221.902 189.678,217.269C189.678,212.636 189.671,212.056 189.591,210.236ZM186.512,224.169C186.438,225.836 186.158,226.736 185.924,227.336C185.35,228.822 184.167,230.002 182.678,230.576C182.077,230.809 181.168,231.089 179.505,231.162C177.701,231.243 177.161,231.262 172.598,231.262C168.036,231.262 167.488,231.243 165.691,231.162C164.022,231.089 163.12,230.809 162.519,230.576C161.777,230.302 161.103,229.869 160.555,229.302C159.987,228.749 159.553,228.082 159.279,227.343C159.045,226.743 158.765,225.836 158.692,224.176C158.611,222.376 158.591,221.836 158.591,217.282C158.591,212.729 158.611,212.182 158.692,210.389C158.765,208.723 159.045,207.823 159.279,207.223C159.553,206.482 159.987,205.809 160.562,205.262C161.116,204.696 161.784,204.262 162.525,203.989C163.127,203.756 164.035,203.476 165.698,203.403C167.502,203.323 168.043,203.303 172.605,203.303C177.174,203.303 177.715,203.323 179.512,203.403C181.182,203.476 182.083,203.756 182.684,203.989C183.426,204.262 184.1,204.696 184.648,205.262C185.216,205.816 185.65,206.482 185.924,207.223C186.158,207.823 186.438,208.729 186.512,210.389C186.592,212.189 186.612,212.729 186.612,217.282C186.612,221.836 186.592,222.369 186.512,224.169L186.512,224.169Z" transform="rotate(-182.377 172.585 217.266)" fill="#000000"/>
<path d="M172.577,208.488C167.728,208.488 163.793,212.414 163.793,217.254C163.793,222.094 167.728,226.021 172.577,226.021C177.427,226.021 181.361,222.094 181.361,217.254C181.361,212.414 177.427,208.488 172.577,208.488ZM172.577,222.941C169.431,222.941 166.879,220.394 166.879,217.254C166.879,214.114 169.431,211.568 172.577,211.568C175.723,211.568 178.275,214.114 178.275,217.254C178.275,220.394 175.723,222.941 172.577,222.941L172.577,222.941Z" transform="rotate(-182.377 172.577 217.254)" fill="#000000"/>
<path d="M183.553,207.936C183.553,209.066 182.635,209.983 181.502,209.983C180.37,209.983 179.452,209.066 179.452,207.936C179.452,206.806 180.37,205.889 181.502,205.889C182.635,205.889 183.553,206.806 183.553,207.936L183.553,207.936Z" transform="rotate(-182.378 181.502 207.936)" fill="#000000"/>
</svg>
