<svg width="64" height="64" viewBox="0 0 64 64" fill="none" xmlns="http://www.w3.org/2000/svg" xmlns:xlink="http://www.w3.org/1999/xlink">
<path d="M63.231,32C63.231,49.673 48.904,64 31.231,64C13.558,64 -0.769,49.673 -0.769,32C-0.769,14.327 13.558,0 31.231,0C48.904,0 63.231,14.327 63.231,32Z" transform="rotate(0 31.231 32)" fill="#000000" fill-opacity="0.8"/>
<path d="M55.846,32C55.846,45.595 44.826,56.616 31.231,56.616C17.636,56.616 6.616,45.595 6.616,32C6.616,18.405 17.636,7.385 31.231,7.385C44.826,7.385 55.846,18.405 55.846,32Z" transform="rotate(0 31.231 32)" fill="#3555FF"/>
</svg>
