<svg width="104" height="104" viewBox="0 0 104 104" fill="none" xmlns="http://www.w3.org/2000/svg" xmlns:xlink="http://www.w3.org/1999/xlink">
<path d="M0,18.689C0,12.221 6.055,7.476 12.394,8.766C40.776,14.543 61.469,14.442 91.783,8.558C98.065,7.339 104,12.074 104,18.473L104,84.53C104,91.237 97.52,96.02 91.021,94.359C62.708,87.122 42.155,87.125 12.897,94.469C6.423,96.094 0,91.315 0,84.64L0,18.689Z" transform="rotate(180 52 52)" fill="#000000" fill-opacity="0.9"/>
<path d="M68.031,49.186L68.033,49.186L54.814,49.186L54.814,35.992C54.814,34.906 53.935,33.998 52.849,33.998L51.157,33.998C50.071,33.998 49.188,34.906 49.188,35.992L49.188,49.186L35.969,49.186C34.884,49.186 34,50.065 34,51.151L34,52.852C34,53.937 34.883,54.812 35.969,54.812L49.189,54.812L49.189,68.054C49.189,69.139 50.071,70 51.157,70L52.849,70C53.935,70 54.814,69.139 54.814,68.054L54.814,54.812L68.031,54.812C69.117,54.812 70.002,53.937 70.002,52.852L70.002,51.151C70.002,50.065 69.117,49.186 68.031,49.186L68.031,49.186Z" fill="#FFFFFF" fill-opacity="0.9"/>
</svg>
