<svg width="1024" height="1020" viewBox="0 0 1024 1020" fill="none" xmlns="http://www.w3.org/2000/svg" xmlns:xlink="http://www.w3.org/1999/xlink">
<path d="M104,23.299C104,10.387 116.097,0.873 128.683,3.757C413.146,68.946 589.256,67.632 895.686,3.186C908.16,0.562 920,10.038 920,22.785L920,997.698C920,1010.288 908.448,1019.732 896.078,1017.382C603.25,961.758 427.028,962.766 127.783,1017.58C115.458,1019.838 104,1010.41 104,997.88L104,23.299Z" transform="rotate(180 512 510)" stroke="#000000" stroke-opacity="0.9" stroke-width="4" stroke-miterlimit="3.999327"/>
<path d="M102,25.055C102,12.221 113.975,2.725 126.509,5.483C420.984,70.289 597.336,68.957 893.604,5.32C906.104,2.635 918,12.121 918,24.908L918,995.498C918,1008.154 906.33,1017.612 893.916,1015.152C596.824,956.272 419.464,957.044 126.074,1015.158C113.661,1017.616 102,1008.158 102,995.504L102,25.055Z" fill="url(#pattern_0_2_185)"/>
</svg>
