<svg width="40" height="40" viewBox="0 0 40 40" fill="none" xmlns="http://www.w3.org/2000/svg" xmlns:xlink="http://www.w3.org/1999/xlink">
<path d="M35.465,7.922C35.026,7.407 34.476,6.992 33.855,6.708C33.233,6.424 32.555,6.277 31.869,6.278L6.624,6.278L6.558,5.742C6.424,4.629 5.876,3.602 5.019,2.857C4.162,2.112 3.055,1.7 1.908,1.699L1.561,1.699C1.147,1.699 0.75,1.86 0.457,2.146C0.165,2.432 0,2.821 0,3.225C0,3.63 0.165,4.018 0.457,4.305C0.75,4.591 1.147,4.752 1.561,4.752L1.908,4.752C2.291,4.752 2.66,4.889 2.945,5.137C3.231,5.386 3.414,5.728 3.459,6.099L5.607,23.957C5.83,25.814 6.743,27.526 8.173,28.769C9.602,30.012 11.448,30.698 13.361,30.698L29.668,30.698C30.082,30.698 30.479,30.537 30.772,30.251C31.065,29.965 31.229,29.577 31.229,29.172C31.229,28.767 31.065,28.379 30.772,28.093C30.479,27.807 30.082,27.646 29.668,27.646L13.361,27.646C12.395,27.643 11.453,27.348 10.665,26.802C9.876,26.255 9.28,25.484 8.958,24.593L27.571,24.593C29.401,24.593 31.173,23.965 32.578,22.817C33.982,21.67 34.93,20.077 35.255,18.316L36.48,11.67C36.603,11.011 36.575,10.333 36.4,9.686C36.224,9.038 35.905,8.436 35.465,7.922L35.465,7.922ZM33.415,11.128L32.188,17.774C31.993,18.832 31.423,19.789 30.579,20.477C29.735,21.166 28.67,21.542 27.571,21.541L8.462,21.541L6.992,9.331L31.869,9.331C32.099,9.329 32.326,9.377 32.534,9.471C32.742,9.565 32.926,9.703 33.074,9.875C33.222,10.046 33.329,10.248 33.388,10.464C33.447,10.681 33.456,10.908 33.415,11.128L33.415,11.128Z" fill="#000000" fill-opacity="0.8"/>
<path d="M10.93,38.33C12.654,38.33 14.052,36.963 14.052,35.277C14.052,33.591 12.654,32.225 10.93,32.225C9.205,32.225 7.807,33.591 7.807,35.277C7.807,36.963 9.205,38.33 10.93,38.33Z" fill="#000000" fill-opacity="0.8"/>
<path d="M26.545,38.33C28.269,38.33 29.668,36.963 29.668,35.277C29.668,33.591 28.269,32.225 26.545,32.225C24.82,32.225 23.422,33.591 23.422,35.277C23.422,36.963 24.82,38.33 26.545,38.33Z" fill="#000000" fill-opacity="0.8"/>
<circle cx="31.985" cy="6.093" r="6.093" fill="#FF6A28"/>
</svg>
