<svg width="2960" height="1390" viewBox="0 0 2960 1390" fill="none" xmlns="http://www.w3.org/2000/svg" xmlns:xlink="http://www.w3.org/1999/xlink">
<rect  x="0" y="0" width="2960" height="1390" fill="#F0F2FF"/>
<path d="M320,157.292C320,144.382 332.12,134.875 344.702,137.764C660.7,210.335 855.254,208.887 1195.666,137.191C1208.138,134.564 1220,144.033 1220,156.779L1220,1235.704C1220,1248.292 1208.426,1257.73 1196.06,1255.376C870.828,1193.482 676.162,1194.602 343.803,1255.576C331.48,1257.836 320,1248.414 320,1235.886L320,157.292Z" transform="rotate(-360 770 696)" stroke="#000000" stroke-opacity="0.9" stroke-width="4" stroke-miterlimit="3.999327"/>
<path d="M204.007,245.508C201.948,233.275 211.341,222 223.747,222L1321.762,222C1334.33,222 1343.762,233.555 1341.438,245.907C1276.76,589.452 1277.804,794.108 1341.61,1144.214C1343.854,1156.528 1334.436,1168 1321.92,1168L223.749,1168C211.343,1168 201.951,1156.716 204.01,1144.482C262.982,794.112 261.881,589.324 204.007,245.508Z" fill="url(#pattern_0_2_125)"/>
</svg>
