<svg width="1000" height="992" viewBox="0 0 1000 992" fill="none" xmlns="http://www.w3.org/2000/svg" xmlns:xlink="http://www.w3.org/1999/xlink">
<path d="M145,21.022C145,7.884 157.456,-1.679 170.184,1.573C414.41,63.984 567.164,62.698 830.238,0.914C842.848,-2.048 855,7.478 855,20.432L855,970.12C855,982.898 843.168,992.392 830.668,989.742C579.114,936.42 426.242,937.392 169.178,989.968C156.725,992.516 145,983.038 145,970.328L145,21.022Z" transform="rotate(180 500 495)" stroke="#000000" stroke-opacity="0.9" stroke-width="4" stroke-miterlimit="3.999327"/>
<path d="M74,101.023C74,88.865 84.86,79.537 96.905,81.194C425.278,126.38 606.846,124.554 894.894,81.506C907.018,79.694 918,89.055 918,101.314L918,887.552C918,900.19 906.338,909.64 893.938,907.196C575.48,844.478 392.896,843.438 98.406,906.67C85.899,909.356 74,899.868 74,887.076L74,101.023Z" fill="url(#pattern_0_2_51)"/>
</svg>
