<svg width="180" height="84" viewBox="0 0 180 84" fill="none" xmlns="http://www.w3.org/2000/svg" xmlns:xlink="http://www.w3.org/1999/xlink">
<path d="M74.909,0.513C73.159,2.078 72.757,5.459 74.008,8.081C74.83,9.802 76.93,11.883 79.177,13.203L80.96,14.25L77.835,15.903C71.28,19.371 68.131,22.312 65.576,27.353C63.683,31.089 62.923,34.912 63.117,39.731C63.424,47.367 66.025,53.221 71.968,59.648C74.059,61.91 74.184,62.094 73.92,62.521C73.764,62.772 73.373,63.407 73.05,63.934C69.383,69.918 72.286,77.884 79.455,81.506C85.079,84.349 93.297,84.806 99.919,82.647C103.715,81.409 107.043,79.339 109.535,76.665C110.769,75.342 113.136,71.88 112.928,71.704C112.894,71.675 112.659,71.542 112.407,71.409C111.989,71.187 111.884,71.267 111.185,72.34C109.479,74.959 106.559,77.012 102.731,78.283C95.34,80.738 86.129,81.031 80.805,78.981C78.511,78.099 77.337,77.395 75.966,76.084C74.225,74.42 73.363,72.923 72.946,70.837C72.666,69.437 72.652,68.942 72.863,67.776C73.117,66.375 73.946,64.535 74.81,63.457L75.278,62.873L76.845,63.845C83.854,68.193 91.789,70.061 98.366,68.909C101.931,68.285 105.427,66.849 108.794,64.625C118.592,58.152 124.246,46.974 124.246,34.076C124.246,24.453 121.213,16.359 115.379,10.414C110.006,4.939 103.216,2.159 95.22,2.162C91.382,2.163 88.414,2.623 82.906,4.072C77.441,5.51 76.083,5.388 75.43,3.402C75.123,2.467 75.218,2.037 75.914,1.193C76.404,0.6 76.407,0.575 76.026,0.224C75.655,-0.118 75.597,-0.103 74.909,0.513ZM0,4.638C0,5.13 0.084,5.16 2.178,5.4C6.185,5.859 7.944,6.593 8.865,8.19C9.289,8.925 9.293,9.169 9.357,35.316C9.404,54.529 9.357,62.006 9.183,62.827C8.705,65.088 6.891,66.074 2.349,66.543L0,66.786L0,67.381L0,67.977L16.455,67.977C26.053,67.977 34.08,67.883 35.718,67.753C43.892,67.101 49.776,64.723 53.434,60.593C54.834,59.013 56.192,56.472 56.709,54.466C57.216,52.496 57.319,49.024 56.927,47.125C56.51,45.109 55.228,42.458 53.96,40.992C50.822,37.365 44.993,35.01 37.744,34.443C36.739,34.364 35.916,34.23 35.916,34.144C35.916,34.058 36.504,33.92 37.222,33.838C40.574,33.452 44.603,32.289 47.181,30.961C52.334,28.307 55.212,23.624 54.834,18.507C54.278,10.988 49.441,6.711 39.258,4.732C36.919,4.278 36.377,4.264 18.428,4.195L0,4.125L0,4.638ZM125.916,4.652C125.916,5.122 126.019,5.169 127.326,5.302C132.001,5.775 133.821,6.501 134.744,8.258L135.209,9.145L135.209,36.061C135.209,61.347 135.186,63.018 134.842,63.661C133.933,65.355 132.109,66.155 128.266,66.547L125.916,66.786L125.916,67.381L125.916,67.977L141.891,67.977L157.865,67.977L157.865,67.445C157.865,67.065 157.753,66.913 157.47,66.913C156.15,66.913 152.648,66.408 151.544,66.059C150.153,65.619 149.321,64.973 148.732,63.874C148.392,63.241 148.364,62.181 148.364,49.891L148.364,36.593L151.56,36.644C156.653,36.726 158.81,37.451 161.21,39.891C162.812,41.518 163.977,43.653 165.056,46.936C165.704,48.91 165.839,49.154 166.313,49.214L166.845,49.281L166.845,35.954L166.845,22.628L166.297,22.695C165.808,22.755 165.686,22.96 165.162,24.603C163.296,30.451 160.435,33.539 156.016,34.474C155.137,34.66 153.172,34.819 151.422,34.845L148.364,34.89L148.364,20.315L148.364,5.74L154.42,5.753C159.937,5.764 160.633,5.807 162.251,6.229C165.22,7.005 167.28,8.203 169.458,10.42C172.19,13.201 174.396,16.808 177.225,23.117C178.626,26.242 178.646,26.273 179.32,26.273L180,26.273L179.995,24.943C179.99,23.938 179.414,4.471 179.38,4.198C179.376,4.168 167.346,4.145 152.645,4.145L125.916,4.145L125.916,4.652ZM33.097,6.151C37.14,7.067 39.794,9.645 40.831,13.665C41.364,15.733 41.616,20.081 41.349,22.61C40.909,26.773 39.697,29.484 37.533,31.145C35.154,32.971 32.788,33.49 26.781,33.5L22.552,33.507L22.552,19.541L22.552,5.575L27.094,5.698C30.012,5.777 32.158,5.939 33.097,6.151ZM84.153,15.221C85.335,15.544 87.104,15.723 91.357,15.95C94.458,16.116 97.686,16.401 98.529,16.583C106.954,18.401 113.552,26.183 115.403,36.486C115.908,39.295 115.902,45.179 115.391,48.082C113.887,56.63 109.549,63.066 103.26,66.082C100.474,67.418 98.51,67.831 95.547,67.706C92.616,67.583 91.159,67.227 88.852,66.073C86.65,64.972 84.723,63.317 83.121,61.15C81.826,59.399 81.819,59.382 82.306,59.17C82.575,59.052 83.923,58.951 85.302,58.945C87.619,58.935 87.901,58.979 89.052,59.528C90.512,60.225 91.546,60.99 92.017,61.722C92.335,62.216 92.329,62.276 91.924,62.719C91.505,63.177 91.503,63.202 91.876,63.667L92.258,64.145L94.15,62.108C99.3,56.563 102.776,51.103 104.029,46.593C104.627,44.438 104.664,41.113 104.113,39.04C103.528,36.84 102.077,34.254 99.934,31.592C97.253,28.263 95.914,26.293 95.265,24.723C94.802,23.603 94.719,23.091 94.725,21.379C94.729,20.034 94.846,19.053 95.074,18.446L95.416,17.533L94.759,17.914C93.719,18.515 91.293,20.927 90.299,22.347C89.037,24.148 87.788,26.897 87.26,29.034C86.647,31.513 86.779,34.946 87.585,37.5C88.745,41.174 90.3,44.087 92.698,47.079C95.667,50.783 96.013,51.317 96.272,52.59C96.565,54.024 96.351,55.369 95.547,57.149L95.007,58.343L92.869,57.575C90.792,56.829 90.647,56.807 87.807,56.819C84.913,56.832 84.699,56.867 81.312,57.879C80.915,57.997 80.766,57.749 79.804,55.366C76.788,47.892 76.11,43.99 76.272,35.053C76.433,26.184 77.121,23.452 80.776,17.18C81.543,15.865 82.263,14.791 82.378,14.791C82.493,14.792 83.292,14.986 84.153,15.221ZM34.35,35.726C39.127,37.115 41.976,40.221 43.147,45.316C43.73,47.855 43.686,54.537 43.068,57.263C42.01,61.925 39.694,64.477 35.404,65.703C34.154,66.06 33.075,66.138 28.242,66.221L22.552,66.319L22.552,50.746L22.552,35.172L27.825,35.267C31.961,35.341 33.368,35.44 34.35,35.726Z" clip-rule="evenodd" fill-rule="evenodd" fill="#000000" fill-opacity="0.9"/>
</svg>
